<svg xmlns="http://www.w3.org/2000/svg" xmlns:xlink="http://www.w3.org/1999/xlink" preserveAspectRatio="xMidYMid meet" version="1.0" viewBox="0.7 0.1 58.1 58.1" zoomAndPan="magnify" style="fill: rgb(0, 0, 0);" original_string_length="21288" width="279.27857440490857px" height="279.27857440490857px"><g><g id="__id0_srynm3z3fe"><path d="M 29.730469 0.0585938 C 45.777344 0.0585938 58.785156 13.066406 58.785156 29.113281 C 58.785156 45.160156 45.777344 58.167969 29.730469 58.167969 C 13.683594 58.167969 0.675781 45.160156 0.675781 29.113281 C 0.675781 13.066406 13.683594 0.0585938 29.730469 0.0585938" fill-rule="evenodd" style="fill: rgb(255, 255, 255);"/></g><g id="__id1_srynm3z3fe"><path d="M 29.730469 1.925781 C 44.746094 1.925781 56.917969 14.097656 56.917969 29.113281 C 56.917969 44.128906 44.746094 56.300781 29.730469 56.300781 C 14.714844 56.300781 2.542969 44.128906 2.542969 29.113281 C 2.542969 14.097656 14.714844 1.925781 29.730469 1.925781" fill-rule="evenodd" style="fill: rgb(255, 255, 204);"/></g><g id="__id2_srynm3z3fe"><path d="M 21.226562 46.058594 L 20.832031 46.832031 L 18.851562 45.816406 L 19.78125 43.996094 C 20.070312 43.910156 20.433594 43.886719 20.871094 43.929688 C 21.308594 43.976562 21.71875 44.09375 22.09375 44.285156 C 22.570312 44.53125 22.933594 44.84375 23.183594 45.226562 C 23.433594 45.605469 23.554688 46.03125 23.542969 46.496094 C 23.53125 46.957031 23.410156 47.410156 23.1875 47.847656 C 22.941406 48.324219 22.625 48.695312 22.238281 48.964844 C 21.851562 49.230469 21.414062 49.367188 20.929688 49.367188 C 20.558594 49.371094 20.15625 49.257812 19.722656 49.035156 C 19.15625 48.746094 18.773438 48.402344 18.578125 48 C 18.382812 47.597656 18.347656 47.164062 18.46875 46.699219 L 19.476562 46.996094 C 19.425781 47.253906 19.453125 47.492188 19.566406 47.714844 C 19.675781 47.933594 19.863281 48.109375 20.128906 48.246094 C 20.527344 48.453125 20.914062 48.488281 21.28125 48.355469 C 21.648438 48.21875 21.960938 47.902344 22.21875 47.402344 C 22.496094 46.859375 22.585938 46.390625 22.484375 45.996094 C 22.382812 45.601562 22.136719 45.304688 21.746094 45.105469 C 21.554688 45.007812 21.34375 44.949219 21.109375 44.921875 C 20.878906 44.898438 20.664062 44.90625 20.46875 44.945312 L 20.175781 45.523438 Z M 17.628906 44.667969 C 17.25 45.03125 16.878906 45.273438 16.515625 45.40625 C 16.246094 45.503906 15.964844 45.550781 15.675781 45.546875 C 15.386719 45.542969 15.125 45.492188 14.886719 45.386719 C 14.566406 45.25 14.265625 45.03125 13.976562 44.726562 C 13.453125 44.179688 13.207031 43.582031 13.234375 42.929688 C 13.261719 42.277344 13.578125 41.664062 14.179688 41.085938 C 14.78125 40.515625 15.40625 40.230469 16.054688 40.234375 C 16.703125 40.234375 17.289062 40.511719 17.808594 41.054688 C 18.332031 41.605469 18.582031 42.207031 18.554688 42.851562 C 18.53125 43.5 18.222656 44.105469 17.628906 44.667969 Z M 16.867188 43.921875 C 17.289062 43.519531 17.515625 43.121094 17.546875 42.71875 C 17.578125 42.316406 17.453125 41.96875 17.167969 41.667969 C 16.882812 41.367188 16.539062 41.226562 16.140625 41.238281 C 15.742188 41.253906 15.328125 41.464844 14.898438 41.875 C 14.472656 42.28125 14.246094 42.675781 14.214844 43.0625 C 14.183594 43.449219 14.316406 43.796875 14.609375 44.105469 C 14.90625 44.414062 15.246094 44.5625 15.640625 44.550781 C 16.03125 44.539062 16.441406 44.328125 16.867188 43.921875 Z M 13.378906 39.832031 C 12.90625 40.046875 12.472656 40.15625 12.085938 40.160156 C 11.796875 40.164062 11.519531 40.113281 11.246094 40.015625 C 10.972656 39.917969 10.742188 39.78125 10.550781 39.601562 C 10.296875 39.367188 10.085938 39.058594 9.914062 38.679688 C 9.601562 37.992188 9.566406 37.34375 9.804688 36.738281 C 10.046875 36.132812 10.550781 35.65625 11.308594 35.3125 C 12.066406 34.96875 12.75 34.910156 13.359375 35.125 C 13.972656 35.34375 14.433594 35.796875 14.742188 36.480469 C 15.058594 37.175781 15.09375 37.824219 14.855469 38.425781 C 14.617188 39.027344 14.125 39.496094 13.378906 39.832031 Z M 12.910156 38.875 C 13.4375 38.636719 13.785156 38.332031 13.949219 37.964844 C 14.109375 37.597656 14.105469 37.222656 13.9375 36.847656 C 13.765625 36.472656 13.492188 36.222656 13.109375 36.105469 C 12.730469 35.984375 12.269531 36.046875 11.726562 36.292969 C 11.191406 36.535156 10.84375 36.835938 10.6875 37.1875 C 10.53125 37.542969 10.539062 37.914062 10.714844 38.304688 C 10.890625 38.691406 11.167969 38.945312 11.539062 39.0625 C 11.914062 39.179688 12.371094 39.117188 12.910156 38.875 Z M 8.359375 33.8125 L 8.21875 31.933594 C 8.1875 31.507812 8.191406 31.183594 8.242188 30.957031 C 8.304688 30.652344 8.445312 30.382812 8.652344 30.152344 C 8.863281 29.921875 9.125 29.738281 9.445312 29.601562 C 9.761719 29.464844 10.160156 29.378906 10.636719 29.34375 C 11.058594 29.3125 11.425781 29.335938 11.738281 29.417969 C 12.117188 29.515625 12.433594 29.675781 12.679688 29.894531 C 12.867188 30.058594 13.023438 30.289062 13.144531 30.585938 C 13.234375 30.808594 13.292969 31.109375 13.320312 31.488281 L 13.46875 33.425781 Z M 9.144531 32.714844 L 12.527344 32.457031 L 12.46875 31.691406 C 12.445312 31.402344 12.414062 31.199219 12.371094 31.074219 C 12.316406 30.910156 12.234375 30.777344 12.128906 30.675781 C 12.019531 30.570312 11.847656 30.496094 11.613281 30.445312 C 11.382812 30.390625 11.066406 30.378906 10.671875 30.410156 C 10.277344 30.441406 9.976562 30.496094 9.769531 30.582031 C 9.566406 30.667969 9.40625 30.777344 9.300781 30.910156 C 9.191406 31.046875 9.121094 31.210938 9.09375 31.40625 C 9.074219 31.550781 9.078125 31.835938 9.109375 32.253906 Z M 13.90625 25.191406 L 9.875 23.824219 L 9.386719 25.261719 L 8.566406 24.984375 L 9.871094 21.136719 L 10.691406 21.414062 L 10.207031 22.84375 L 14.238281 24.207031 Z M 15.101562 22.246094 L 10.664062 19.691406 L 11.179688 18.792969 L 15.621094 21.347656 Z M 16.003906 20.40625 L 12.296875 16.871094 L 13.371094 15.746094 L 16.53125 17.496094 L 14.628906 14.425781 L 15.703125 13.300781 L 19.410156 16.835938 L 18.75 17.527344 L 15.828125 14.75 L 18.050781 18.261719 L 17.363281 18.984375 L 13.75 16.929688 L 16.667969 19.714844 Z M 20.300781 16.234375 L 17.964844 11.675781 L 21.339844 9.945312 L 21.734375 10.714844 L 19.285156 11.972656 L 19.800781 12.984375 L 22.082031 11.816406 L 22.476562 12.585938 L 20.195312 13.753906 L 20.828125 14.988281 L 23.371094 13.6875 L 23.765625 14.457031 Z M 24.046875 12.539062 L 25.023438 12.261719 C 25.140625 12.582031 25.304688 12.804688 25.515625 12.929688 C 25.722656 13.050781 25.984375 13.085938 26.292969 13.03125 C 26.617188 12.972656 26.851562 12.859375 26.992188 12.691406 C 27.132812 12.523438 27.1875 12.347656 27.15625 12.160156 C 27.132812 12.042969 27.078125 11.945312 26.996094 11.875 C 26.910156 11.804688 26.777344 11.753906 26.59375 11.722656 C 26.464844 11.703125 26.183594 11.675781 25.742188 11.648438 C 25.171875 11.605469 24.761719 11.507812 24.507812 11.351562 C 24.148438 11.128906 23.933594 10.816406 23.863281 10.414062 C 23.816406 10.15625 23.847656 9.902344 23.953125 9.652344 C 24.054688 9.402344 24.234375 9.195312 24.488281 9.03125 C 24.738281 8.863281 25.058594 8.746094 25.445312 8.675781 C 26.074219 8.5625 26.578125 8.617188 26.945312 8.84375 C 27.3125 9.066406 27.546875 9.410156 27.648438 9.875 L 26.632812 10.09375 C 26.542969 9.839844 26.417969 9.667969 26.253906 9.582031 C 26.09375 9.492188 25.867188 9.472656 25.582031 9.523438 C 25.289062 9.578125 25.070312 9.679688 24.925781 9.832031 C 24.835938 9.925781 24.800781 10.042969 24.824219 10.171875 C 24.84375 10.292969 24.914062 10.386719 25.027344 10.453125 C 25.175781 10.539062 25.507812 10.59375 26.023438 10.625 C 26.539062 10.652344 26.925781 10.710938 27.183594 10.792969 C 27.441406 10.875 27.65625 11.011719 27.832031 11.207031 C 28.003906 11.398438 28.117188 11.65625 28.175781 11.972656 C 28.226562 12.261719 28.195312 12.546875 28.078125 12.828125 C 27.964844 13.109375 27.769531 13.335938 27.5 13.511719 C 27.226562 13.6875 26.871094 13.8125 26.433594 13.890625 C 25.796875 14.003906 25.28125 13.945312 24.886719 13.714844 C 24.492188 13.480469 24.214844 13.089844 24.046875 12.539062 Z M 34.078125 12.160156 L 34.273438 11.316406 L 36.441406 11.816406 L 35.980469 13.808594 C 35.722656 13.964844 35.378906 14.074219 34.941406 14.140625 C 34.503906 14.203125 34.082031 14.1875 33.671875 14.09375 C 33.148438 13.972656 32.71875 13.757812 32.382812 13.449219 C 32.046875 13.140625 31.828125 12.757812 31.726562 12.304688 C 31.625 11.851562 31.628906 11.386719 31.738281 10.90625 C 31.859375 10.386719 32.078125 9.949219 32.386719 9.59375 C 32.699219 9.238281 33.089844 9 33.558594 8.882812 C 33.917969 8.789062 34.332031 8.796875 34.808594 8.90625 C 35.429688 9.050781 35.882812 9.292969 36.171875 9.632812 C 36.460938 9.976562 36.601562 10.386719 36.59375 10.867188 L 35.546875 10.824219 C 35.535156 10.566406 35.445312 10.339844 35.285156 10.152344 C 35.125 9.964844 34.898438 9.839844 34.609375 9.773438 C 34.167969 9.671875 33.789062 9.730469 33.464844 9.949219 C 33.140625 10.167969 32.914062 10.554688 32.789062 11.105469 C 32.652344 11.699219 32.679688 12.171875 32.875 12.53125 C 33.070312 12.886719 33.378906 13.113281 33.804688 13.214844 C 34.015625 13.261719 34.238281 13.269531 34.46875 13.234375 C 34.699219 13.203125 34.902344 13.144531 35.082031 13.058594 L 35.230469 12.425781 Z M 37.890625 12.722656 C 38.171875 12.285156 38.476562 11.957031 38.796875 11.742188 C 39.035156 11.585938 39.296875 11.472656 39.578125 11.40625 C 39.859375 11.339844 40.128906 11.332031 40.386719 11.375 C 40.726562 11.433594 41.074219 11.574219 41.425781 11.800781 C 42.0625 12.207031 42.445312 12.730469 42.574219 13.371094 C 42.703125 14.011719 42.539062 14.683594 42.089844 15.386719 C 41.640625 16.082031 41.101562 16.507812 40.472656 16.660156 C 39.839844 16.8125 39.207031 16.683594 38.574219 16.277344 C 37.933594 15.867188 37.546875 15.34375 37.417969 14.707031 C 37.292969 14.074219 37.449219 13.410156 37.890625 12.722656 Z M 38.804688 13.269531 C 38.492188 13.757812 38.367188 14.203125 38.433594 14.597656 C 38.496094 14.996094 38.703125 15.304688 39.050781 15.527344 C 39.398438 15.753906 39.765625 15.808594 40.148438 15.703125 C 40.53125 15.59375 40.882812 15.289062 41.203125 14.789062 C 41.523438 14.292969 41.652344 13.855469 41.589844 13.472656 C 41.527344 13.089844 41.316406 12.785156 40.957031 12.554688 C 40.597656 12.324219 40.226562 12.261719 39.851562 12.367188 C 39.472656 12.472656 39.125 12.773438 38.804688 13.269531 Z M 43.109375 16.464844 C 43.519531 16.140625 43.914062 15.933594 44.289062 15.835938 C 44.566406 15.765625 44.851562 15.746094 45.136719 15.777344 C 45.425781 15.804688 45.683594 15.886719 45.910156 16.011719 C 46.214844 16.179688 46.496094 16.425781 46.753906 16.753906 C 47.21875 17.347656 47.40625 17.96875 47.320312 18.613281 C 47.230469 19.261719 46.859375 19.84375 46.203125 20.359375 C 45.550781 20.871094 44.898438 21.09375 44.253906 21.03125 C 43.609375 20.964844 43.054688 20.636719 42.589844 20.046875 C 42.117188 19.445312 41.925781 18.824219 42.015625 18.183594 C 42.101562 17.542969 42.46875 16.96875 43.109375 16.464844 Z M 43.796875 17.28125 C 43.339844 17.640625 43.078125 18.019531 43.007812 18.414062 C 42.9375 18.808594 43.03125 19.171875 43.285156 19.496094 C 43.539062 19.820312 43.867188 19.996094 44.265625 20.019531 C 44.660156 20.042969 45.09375 19.871094 45.5625 19.503906 C 46.023438 19.140625 46.289062 18.769531 46.355469 18.386719 C 46.425781 18.007812 46.328125 17.648438 46.0625 17.3125 C 45.796875 16.976562 45.46875 16.796875 45.078125 16.773438 C 44.6875 16.746094 44.261719 16.917969 43.796875 17.28125 Z M 49.328125 21.105469 L 49.933594 22.890625 C 50.070312 23.296875 50.144531 23.613281 50.152344 23.84375 C 50.164062 24.15625 50.097656 24.453125 49.953125 24.726562 C 49.808594 25 49.597656 25.242188 49.324219 25.453125 C 49.046875 25.664062 48.683594 25.847656 48.230469 26 C 47.828125 26.136719 47.46875 26.203125 47.148438 26.203125 C 46.753906 26.199219 46.410156 26.125 46.113281 25.972656 C 45.890625 25.859375 45.683594 25.671875 45.496094 25.417969 C 45.351562 25.226562 45.222656 24.949219 45.097656 24.585938 L 44.476562 22.746094 Z M 48.839844 22.367188 L 45.628906 23.453125 L 45.875 24.179688 C 45.96875 24.453125 46.050781 24.644531 46.121094 24.753906 C 46.214844 24.902344 46.328125 25.007812 46.457031 25.082031 C 46.585938 25.152344 46.773438 25.183594 47.011719 25.175781 C 47.25 25.171875 47.558594 25.101562 47.933594 24.976562 C 48.308594 24.847656 48.582031 24.71875 48.761719 24.585938 C 48.941406 24.453125 49.066406 24.304688 49.140625 24.148438 C 49.210938 23.992188 49.234375 23.816406 49.214844 23.621094 C 49.199219 23.472656 49.125 23.203125 48.988281 22.804688 Z M 45.949219 31.015625 L 51.261719 29.84375 L 51.121094 30.953125 L 47.195312 31.765625 L 50.800781 33.480469 L 50.660156 34.574219 L 45.808594 32.121094 Z M 45.347656 34.382812 L 50.199219 36.023438 L 49.867188 37.007812 L 45.015625 35.367188 Z M 49.195312 38.886719 L 48.171875 40.664062 C 47.96875 41.015625 47.804688 41.269531 47.675781 41.425781 C 47.546875 41.582031 47.398438 41.699219 47.226562 41.785156 C 47.054688 41.867188 46.867188 41.910156 46.660156 41.910156 C 46.453125 41.914062 46.253906 41.859375 46.0625 41.75 C 45.855469 41.632812 45.699219 41.464844 45.589844 41.253906 C 45.480469 41.042969 45.4375 40.816406 45.460938 40.578125 C 45.226562 40.800781 44.972656 40.929688 44.699219 40.964844 C 44.425781 41 44.160156 40.945312 43.902344 40.796875 C 43.703125 40.679688 43.53125 40.519531 43.394531 40.316406 C 43.257812 40.113281 43.175781 39.898438 43.15625 39.667969 C 43.136719 39.441406 43.179688 39.199219 43.292969 38.945312 C 43.363281 38.785156 43.558594 38.421875 43.882812 37.847656 L 44.753906 36.335938 Z M 47.9375 39.363281 L 46.914062 38.773438 L 46.578125 39.363281 C 46.378906 39.710938 46.257812 39.929688 46.21875 40.019531 C 46.148438 40.183594 46.132812 40.335938 46.167969 40.472656 C 46.207031 40.613281 46.296875 40.71875 46.441406 40.804688 C 46.578125 40.882812 46.710938 40.90625 46.839844 40.882812 C 46.96875 40.855469 47.085938 40.773438 47.1875 40.632812 C 47.25 40.550781 47.402344 40.296875 47.644531 39.878906 Z M 46.175781 38.351562 L 44.988281 37.664062 L 44.507812 38.496094 C 44.324219 38.820312 44.214844 39.03125 44.183594 39.128906 C 44.128906 39.273438 44.128906 39.417969 44.171875 39.554688 C 44.21875 39.691406 44.320312 39.808594 44.476562 39.898438 C 44.613281 39.976562 44.742188 40.007812 44.875 39.996094 C 45.003906 39.984375 45.125 39.929688 45.238281 39.832031 C 45.351562 39.734375 45.527344 39.484375 45.761719 39.074219 Z M 41.957031 40.679688 L 45.492188 44.386719 L 42.75 47.003906 L 42.152344 46.375 L 44.144531 44.476562 L 43.359375 43.652344 L 41.507812 45.421875 L 40.910156 44.792969 L 42.761719 43.027344 L 41.804688 42.023438 L 39.738281 43.992188 L 39.140625 43.367188 Z M 39.292969 45.253906 L 38.414062 45.761719 C 38.222656 45.476562 38.007812 45.304688 37.777344 45.234375 C 37.542969 45.164062 37.28125 45.195312 36.996094 45.328125 C 36.695312 45.460938 36.496094 45.628906 36.402344 45.828125 C 36.304688 46.023438 36.296875 46.210938 36.371094 46.382812 C 36.421875 46.492188 36.496094 46.570312 36.597656 46.621094 C 36.695312 46.667969 36.839844 46.683594 37.027344 46.667969 C 37.152344 46.65625 37.433594 46.613281 37.867188 46.53125 C 38.429688 46.433594 38.851562 46.425781 39.136719 46.519531 C 39.539062 46.648438 39.824219 46.898438 39.992188 47.265625 C 40.097656 47.503906 40.132812 47.757812 40.09375 48.027344 C 40.050781 48.296875 39.929688 48.539062 39.726562 48.761719 C 39.523438 48.984375 39.242188 49.179688 38.882812 49.339844 C 38.300781 49.605469 37.800781 49.671875 37.390625 49.546875 C 36.976562 49.421875 36.667969 49.144531 36.457031 48.71875 L 37.386719 48.257812 C 37.535156 48.480469 37.699219 48.617188 37.878906 48.660156 C 38.058594 48.707031 38.28125 48.671875 38.542969 48.550781 C 38.8125 48.429688 39 48.277344 39.101562 48.09375 C 39.167969 47.976562 39.175781 47.859375 39.121094 47.734375 C 39.070312 47.625 38.980469 47.550781 38.851562 47.515625 C 38.6875 47.46875 38.351562 47.496094 37.847656 47.59375 C 37.339844 47.691406 36.953125 47.730469 36.679688 47.714844 C 36.410156 47.699219 36.167969 47.617188 35.953125 47.472656 C 35.738281 47.328125 35.5625 47.109375 35.429688 46.8125 C 35.308594 46.546875 35.269531 46.261719 35.3125 45.960938 C 35.355469 45.660156 35.488281 45.390625 35.707031 45.15625 C 35.929688 44.917969 36.242188 44.710938 36.648438 44.527344 C 37.238281 44.261719 37.75 44.191406 38.191406 44.320312 C 38.628906 44.449219 38.996094 44.761719 39.292969 45.253906" style="fill: rgb(145, 84, 171);"/></g><g id="__id3_srynm3z3fe"><path d="M 29.730469 16.769531 C 36.546875 16.769531 42.074219 22.296875 42.074219 29.113281 C 42.074219 35.929688 36.546875 41.457031 29.730469 41.457031 C 22.914062 41.457031 17.386719 35.929688 17.386719 29.113281 C 17.386719 22.296875 22.914062 16.769531 29.730469 16.769531" fill-rule="evenodd" style="fill: rgb(233, 181, 10);"/></g><g id="__id4_srynm3z3fe"><path d="M 29.730469 3.207031 C 36.882812 3.207031 43.363281 6.105469 48.050781 10.792969 C 52.738281 15.480469 55.640625 21.960938 55.640625 29.113281 C 55.640625 36.269531 52.738281 42.746094 48.050781 47.433594 C 43.363281 52.121094 36.886719 55.023438 29.730469 55.023438 C 22.578125 55.023438 16.097656 52.121094 11.410156 47.433594 C 6.722656 42.746094 3.824219 36.269531 3.824219 29.113281 C 3.824219 21.960938 6.722656 15.480469 11.410156 10.792969 C 16.097656 6.105469 22.574219 3.207031 29.730469 3.207031 Z M 47.703125 11.140625 C 43.105469 6.539062 36.75 3.695312 29.730469 3.695312 C 22.710938 3.695312 16.355469 6.539062 11.757812 11.140625 C 7.15625 15.742188 4.3125 22.09375 4.3125 29.113281 C 4.3125 36.132812 7.15625 42.488281 11.757812 47.085938 C 16.355469 51.6875 22.710938 54.53125 29.730469 54.53125 C 36.75 54.53125 43.105469 51.6875 47.703125 47.085938 C 52.304688 42.488281 55.148438 36.132812 55.148438 29.113281 C 55.148438 22.09375 52.304688 15.738281 47.703125 11.140625" style="fill: rgb(145, 84, 171);"/></g><g id="__id5_srynm3z3fe"><path d="M 26.054688 21.796875 C 27.046875 21.796875 27.847656 23.347656 27.847656 25.257812 C 27.847656 27.167969 27.046875 28.71875 26.054688 28.71875 C 25.0625 28.71875 24.261719 27.167969 24.261719 25.257812 C 24.261719 23.347656 25.0625 21.796875 26.054688 21.796875" fill-rule="evenodd" style="fill: rgb(145, 84, 171);"/></g><g id="__id6_srynm3z3fe"><path d="M 33.117188 21.796875 C 34.105469 21.796875 34.910156 23.347656 34.910156 25.257812 C 34.910156 27.167969 34.105469 28.71875 33.117188 28.71875 C 32.125 28.71875 31.320312 27.167969 31.320312 25.257812 C 31.320312 23.347656 32.125 21.796875 33.117188 21.796875" fill-rule="evenodd" style="fill: rgb(145, 84, 171);"/></g><g id="__id7_srynm3z3fe"><path d="M 38.351562 30.4375 C 37.878906 32.359375 36.78125 34.035156 35.285156 35.238281 C 33.761719 36.460938 31.832031 37.191406 29.730469 37.191406 C 27.628906 37.191406 25.699219 36.460938 24.175781 35.238281 C 22.679688 34.035156 21.582031 32.359375 21.109375 30.4375 C 20.960938 30.398438 20.824219 30.332031 20.710938 30.238281 C 20.527344 30.09375 20.398438 29.886719 20.34375 29.652344 C 20.308594 29.488281 20.414062 29.328125 20.578125 29.292969 C 20.742188 29.257812 20.90625 29.359375 20.941406 29.523438 C 20.960938 29.621094 21.015625 29.707031 21.089844 29.765625 C 21.160156 29.824219 21.253906 29.859375 21.355469 29.859375 C 21.460938 29.859375 21.550781 29.824219 21.625 29.765625 C 21.699219 29.707031 21.753906 29.621094 21.773438 29.523438 C 21.808594 29.359375 21.972656 29.257812 22.136719 29.292969 C 22.300781 29.328125 22.402344 29.488281 22.367188 29.652344 C 22.316406 29.886719 22.183594 30.09375 22.003906 30.238281 C 21.921875 30.304688 21.828125 30.359375 21.726562 30.398438 C 22.179688 32.144531 23.191406 33.667969 24.554688 34.765625 C 25.972656 35.902344 27.769531 36.585938 29.730469 36.585938 C 31.691406 36.585938 33.488281 35.902344 34.90625 34.765625 C 36.269531 33.667969 37.28125 32.144531 37.734375 30.398438 C 37.632812 30.359375 37.539062 30.304688 37.457031 30.238281 C 37.273438 30.09375 37.144531 29.886719 37.09375 29.652344 C 37.058594 29.488281 37.160156 29.328125 37.324219 29.292969 C 37.488281 29.257812 37.652344 29.359375 37.6875 29.523438 C 37.707031 29.621094 37.761719 29.707031 37.835938 29.765625 C 37.90625 29.824219 38 29.859375 38.101562 29.859375 C 38.207031 29.859375 38.296875 29.824219 38.371094 29.765625 C 38.445312 29.707031 38.5 29.621094 38.519531 29.523438 C 38.554688 29.359375 38.71875 29.257812 38.882812 29.292969 C 39.046875 29.328125 39.148438 29.488281 39.113281 29.652344 C 39.0625 29.886719 38.929688 30.09375 38.75 30.238281 C 38.636719 30.332031 38.5 30.398438 38.351562 30.4375" style="fill: rgb(145, 84, 171);"/></g><g id="__id8_srynm3z3fe"><path d="M 26.488281 22.589844 C 26.730469 22.589844 26.925781 22.96875 26.925781 23.433594 C 26.925781 23.902344 26.730469 24.28125 26.488281 24.28125 C 26.246094 24.28125 26.046875 23.902344 26.046875 23.433594 C 26.046875 22.96875 26.246094 22.589844 26.488281 22.589844" fill-rule="evenodd" style="fill: rgb(255, 255, 255);"/></g><g id="__id9_srynm3z3fe"><path d="M 33.664062 22.589844 C 33.90625 22.589844 34.101562 22.96875 34.101562 23.433594 C 34.101562 23.902344 33.90625 24.28125 33.664062 24.28125 C 33.421875 24.28125 33.222656 23.902344 33.222656 23.433594 C 33.222656 22.96875 33.421875 22.589844 33.664062 22.589844" fill-rule="evenodd" style="fill: rgb(255, 255, 255);"/></g></g></svg>